dataset
version=1
nRows=30
nColumns=39
inDegrees=no
endheader
time	sternoclavicular_r2	sternoclavicular_r3	unrotscap_r3	unrotscap_r2	acromioclavicular_r2	acromioclavicular_r3	acromioclavicular_r1	unrothum_r1	unrothum_r3	unrothum_r2	elv_angle	shoulder_elv	shoulder1_r2	shoulder_rot	elbow_flexion	pro_sup	deviation	flexion	cmc_abduction	cmc_flexion	mp_flexion	ip_flexion	mcp2_flexion	mcp2_abduction	pm2_flexion	md2_flexion	mcp3_flexion	mcp3_abduction	pm3_flexion	md3_flexion	mcp4_flexion	mcp4_abduction	pm4_flexion	md4_flexion	mcp5_flexion	mcp5_abduction	pm5_flexion	md5_flexion
6.105000	-0.026899	-0.289996	0.120319	0.177803	0.164199	0.069397	-0.053335	-0.010960	0.047289	0.141705	0.134841	0.027437	0.146525	0.146525	1.612968	1.289231	0.000000	0.000000	0.000000	0.000000	0.000000	0.000000	0.000000	0.000000	0.000000	0.000000	0.000000	0.000000	0.000000	0.000000	0.000000	0.000000	0.000000	0.000000	0.000000	0.000000	0.000000	0.000000
6.110000	-0.026918	-0.290004	0.120340	0.177791	0.164149	0.069588	-0.053271	-0.010935	0.047487	0.141641	0.134844	0.027437	0.146525	0.146525	1.612530	1.289242	0.000000	0.000000	0.000000	0.000000	0.000000	0.000000	0.000000	0.000000	0.000000	0.000000	0.000000	0.000000	0.000000	0.000000	0.000000	0.000000	0.000000	0.000000	0.000000	0.000000	0.000000	0.000000
6.115000	-0.026939	-0.290011	0.120362	0.177776	0.164094	0.069792	-0.053199	-0.010907	0.047699	0.141571	0.134845	0.027437	0.146525	0.146525	1.612094	1.289253	0.000000	0.000000	0.000000	0.000000	0.000000	0.000000	0.000000	0.000000	0.000000	0.000000	0.000000	0.000000	0.000000	0.000000	0.000000	0.000000	0.000000	0.000000	0.000000	0.000000	0.000000	0.000000
6.120000	-0.026960	-0.290017	0.120383	0.177759	0.164033	0.070012	-0.053122	-0.010875	0.047925	0.141494	0.134845	0.027437	0.146525	0.146525	1.611661	1.289263	0.000000	0.000000	0.000000	0.000000	0.000000	0.000000	0.000000	0.000000	0.000000	0.000000	0.000000	0.000000	0.000000	0.000000	0.000000	0.000000	0.000000	0.000000	0.000000	0.000000	0.000000	0.000000
6.125000	-0.026983	-0.290023	0.120406	0.177738	0.163967	0.070246	-0.053037	-0.010838	0.048165	0.141410	0.134844	0.027437	0.146525	0.146525	1.611231	1.289274	0.000000	0.000000	0.000000	0.000000	0.000000	0.000000	0.000000	0.000000	0.000000	0.000000	0.000000	0.000000	0.000000	0.000000	0.000000	0.000000	0.000000	0.000000	0.000000	0.000000	0.000000	0.000000
6.130000	-0.027007	-0.290029	0.120429	0.177715	0.163895	0.070495	-0.052947	-0.010796	0.048420	0.141319	0.134840	0.027437	0.146525	0.146525	1.610805	1.289283	0.000000	0.000000	0.000000	0.000000	0.000000	0.000000	0.000000	0.000000	0.000000	0.000000	0.000000	0.000000	0.000000	0.000000	0.000000	0.000000	0.000000	0.000000	0.000000	0.000000	0.000000	0.000000
6.135000	-0.027033	-0.290034	0.120452	0.177689	0.163816	0.070760	-0.052850	-0.010750	0.048688	0.141220	0.134835	0.027437	0.146525	0.146525	1.610385	1.289293	0.000000	0.000000	0.000000	0.000000	0.000000	0.000000	0.000000	0.000000	0.000000	0.000000	0.000000	0.000000	0.000000	0.000000	0.000000	0.000000	0.000000	0.000000	0.000000	0.000000	0.000000	0.000000
6.140000	-0.027059	-0.290039	0.120477	0.177660	0.163731	0.071039	-0.052747	-0.010700	0.048971	0.141113	0.134827	0.027437	0.146525	0.146525	1.609970	1.289301	0.000000	0.000000	0.000000	0.000000	0.000000	0.000000	0.000000	0.000000	0.000000	0.000000	0.000000	0.000000	0.000000	0.000000	0.000000	0.000000	0.000000	0.000000	0.000000	0.000000	0.000000	0.000000
6.145000	-0.027087	-0.290044	0.120502	0.177627	0.163640	0.071334	-0.052637	-0.010645	0.049268	0.140998	0.134816	0.027437	0.146525	0.146525	1.609563	1.289310	0.000000	0.000000	0.000000	0.000000	0.000000	0.000000	0.000000	0.000000	0.000000	0.000000	0.000000	0.000000	0.000000	0.000000	0.000000	0.000000	0.000000	0.000000	0.000000	0.000000	0.000000	0.000000
6.150000	-0.027116	-0.290049	0.120528	0.177591	0.163542	0.071645	-0.052522	-0.010585	0.049579	0.140874	0.134803	0.027437	0.146525	0.146525	1.609164	1.289317	0.000000	0.000000	0.000000	0.000000	0.000000	0.000000	0.000000	0.000000	0.000000	0.000000	0.000000	0.000000	0.000000	0.000000	0.000000	0.000000	0.000000	0.000000	0.000000	0.000000	0.000000	0.000000
6.155000	-0.027147	-0.290055	0.120555	0.177550	0.163437	0.071970	-0.052400	-0.010520	0.049903	0.140743	0.134786	0.027437	0.146525	0.146525	1.608775	1.289324	0.000000	0.000000	0.000000	0.000000	0.000000	0.000000	0.000000	0.000000	0.000000	0.000000	0.000000	0.000000	0.000000	0.000000	0.000000	0.000000	0.000000	0.000000	0.000000	0.000000	0.000000	0.000000
6.160000	-0.027178	-0.290061	0.120584	0.177506	0.163325	0.072311	-0.052272	-0.010451	0.050241	0.140602	0.134767	0.027437	0.146525	0.146525	1.608395	1.289331	0.000000	0.000000	0.000000	0.000000	0.000000	0.000000	0.000000	0.000000	0.000000	0.000000	0.000000	0.000000	0.000000	0.000000	0.000000	0.000000	0.000000	0.000000	0.000000	0.000000	0.000000	0.000000
6.165000	-0.027210	-0.290067	0.120613	0.177457	0.163206	0.072667	-0.052139	-0.010377	0.050593	0.140453	0.134743	0.027437	0.146525	0.146525	1.608028	1.289336	0.000000	0.000000	0.000000	0.000000	0.000000	0.000000	0.000000	0.000000	0.000000	0.000000	0.000000	0.000000	0.000000	0.000000	0.000000	0.000000	0.000000	0.000000	0.000000	0.000000	0.000000	0.000000
6.170000	-0.027244	-0.290074	0.120644	0.177404	0.163079	0.073038	-0.052000	-0.010299	0.050957	0.140294	0.134716	0.027437	0.146525	0.146525	1.607673	1.289341	0.000000	0.000000	0.000000	0.000000	0.000000	0.000000	0.000000	0.000000	0.000000	0.000000	0.000000	0.000000	0.000000	0.000000	0.000000	0.000000	0.000000	0.000000	0.000000	0.000000	0.000000	0.000000
6.175000	-0.027279	-0.290082	0.120677	0.177346	0.162944	0.073424	-0.051855	-0.010215	0.051335	0.140126	0.134685	0.027437	0.146525	0.146525	1.607333	1.289345	0.000000	0.000000	0.000000	0.000000	0.000000	0.000000	0.000000	0.000000	0.000000	0.000000	0.000000	0.000000	0.000000	0.000000	0.000000	0.000000	0.000000	0.000000	0.000000	0.000000	0.000000	0.000000
6.180000	-0.027314	-0.290091	0.120711	0.177283	0.162801	0.073825	-0.051705	-0.010127	0.051725	0.139949	0.134649	0.027437	0.146525	0.146525	1.607007	1.289348	0.000000	0.000000	0.000000	0.000000	0.000000	0.000000	0.000000	0.000000	0.000000	0.000000	0.000000	0.000000	0.000000	0.000000	0.000000	0.000000	0.000000	0.000000	0.000000	0.000000	0.000000	0.000000
6.185000	-0.027351	-0.290101	0.120747	0.177215	0.162651	0.074241	-0.051550	-0.010035	0.052127	0.139762	0.134609	0.027437	0.146525	0.146525	1.606698	1.289350	0.000000	0.000000	0.000000	0.000000	0.000000	0.000000	0.000000	0.000000	0.000000	0.000000	0.000000	0.000000	0.000000	0.000000	0.000000	0.000000	0.000000	0.000000	0.000000	0.000000	0.000000	0.000000
6.190000	-0.027388	-0.290112	0.120784	0.177141	0.162492	0.074671	-0.051390	-0.009938	0.052541	0.139565	0.134564	0.027437	0.146525	0.146525	1.606407	1.289351	0.000000	0.000000	0.000000	0.000000	0.000000	0.000000	0.000000	0.000000	0.000000	0.000000	0.000000	0.000000	0.000000	0.000000	0.000000	0.000000	0.000000	0.000000	0.000000	0.000000	0.000000	0.000000
6.195000	-0.027427	-0.290125	0.120823	0.177063	0.162324	0.075116	-0.051225	-0.009836	0.052967	0.139358	0.134513	0.027437	0.146525	0.146525	1.606135	1.289351	0.000000	0.000000	0.000000	0.000000	0.000000	0.000000	0.000000	0.000000	0.000000	0.000000	0.000000	0.000000	0.000000	0.000000	0.000000	0.000000	0.000000	0.000000	0.000000	0.000000	0.000000	0.000000
6.200000	-0.027466	-0.290138	0.120864	0.176978	0.162148	0.075575	-0.051055	-0.009730	0.053404	0.139141	0.134458	0.027437	0.146525	0.146525	1.605883	1.289350	0.000000	0.000000	0.000000	0.000000	0.000000	0.000000	0.000000	0.000000	0.000000	0.000000	0.000000	0.000000	0.000000	0.000000	0.000000	0.000000	0.000000	0.000000	0.000000	0.000000	0.000000	0.000000
6.205000	-0.027506	-0.290154	0.120907	0.176888	0.161963	0.076048	-0.050881	-0.009619	0.053853	0.138914	0.134396	0.027437	0.146525	0.146525	1.605652	1.289347	0.000000	0.000000	0.000000	0.000000	0.000000	0.000000	0.000000	0.000000	0.000000	0.000000	0.000000	0.000000	0.000000	0.000000	0.000000	0.000000	0.000000	0.000000	0.000000	0.000000	0.000000	0.000000
6.210000	-0.027546	-0.290170	0.120953	0.176791	0.161769	0.076534	-0.050702	-0.009505	0.054311	0.138676	0.134329	0.027437	0.146525	0.146525	1.605444	1.289344	0.000000	0.000000	0.000000	0.000000	0.000000	0.000000	0.000000	0.000000	0.000000	0.000000	0.000000	0.000000	0.000000	0.000000	0.000000	0.000000	0.000000	0.000000	0.000000	0.000000	0.000000	0.000000
6.215000	-0.027587	-0.290189	0.121000	0.176689	0.161567	0.077035	-0.050519	-0.009386	0.054780	0.138428	0.134255	0.027437	0.146525	0.146525	1.605260	1.289339	0.000000	0.000000	0.000000	0.000000	0.000000	0.000000	0.000000	0.000000	0.000000	0.000000	0.000000	0.000000	0.000000	0.000000	0.000000	0.000000	0.000000	0.000000	0.000000	0.000000	0.000000	0.000000
6.220000	-0.027629	-0.290209	0.121049	0.176580	0.161355	0.077548	-0.050332	-0.009262	0.055259	0.138169	0.134175	0.027437	0.146525	0.146525	1.605102	1.289333	0.000000	0.000000	0.000000	0.000000	0.000000	0.000000	0.000000	0.000000	0.000000	0.000000	0.000000	0.000000	0.000000	0.000000	0.000000	0.000000	0.000000	0.000000	0.000000	0.000000	0.000000	0.000000
6.225000	-0.027671	-0.290231	0.121101	0.176464	0.161134	0.078074	-0.050141	-0.009135	0.055748	0.137899	0.134089	0.027437	0.146525	0.146525	1.604970	1.289325	0.000000	0.000000	0.000000	0.000000	0.000000	0.000000	0.000000	0.000000	0.000000	0.000000	0.000000	0.000000	0.000000	0.000000	0.000000	0.000000	0.000000	0.000000	0.000000	0.000000	0.000000	0.000000
6.230000	-0.027714	-0.290255	0.121155	0.176341	0.160903	0.078614	-0.049947	-0.009003	0.056245	0.137619	0.133996	0.027437	0.146525	0.146525	1.604866	1.289316	0.000000	0.000000	0.000000	0.000000	0.000000	0.000000	0.000000	0.000000	0.000000	0.000000	0.000000	0.000000	0.000000	0.000000	0.000000	0.000000	0.000000	0.000000	0.000000	0.000000	0.000000	0.000000
6.235000	-0.027757	-0.290280	0.121211	0.176212	0.160663	0.079165	-0.049749	-0.008868	0.056752	0.137327	0.133896	0.027437	0.146525	0.146525	1.604791	1.289305	0.000000	0.000000	0.000000	0.000000	0.000000	0.000000	0.000000	0.000000	0.000000	0.000000	0.000000	0.000000	0.000000	0.000000	0.000000	0.000000	0.000000	0.000000	0.000000	0.000000	0.000000	0.000000
6.240000	-0.027800	-0.290308	0.121270	0.176076	0.160413	0.079729	-0.049547	-0.008729	0.057266	0.137024	0.133788	0.027437	0.146525	0.146525	1.604746	1.289293	0.000000	0.000000	0.000000	0.000000	0.000000	0.000000	0.000000	0.000000	0.000000	0.000000	0.000000	0.000000	0.000000	0.000000	0.000000	0.000000	0.000000	0.000000	0.000000	0.000000	0.000000	0.000000
6.245000	-0.027844	-0.290337	0.121331	0.175932	0.160154	0.080304	-0.049343	-0.008585	0.057789	0.136711	0.133673	0.027437	0.146525	0.146525	1.604733	1.289279	0.000000	0.000000	0.000000	0.000000	0.000000	0.000000	0.000000	0.000000	0.000000	0.000000	0.000000	0.000000	0.000000	0.000000	0.000000	0.000000	0.000000	0.000000	0.000000	0.000000	0.000000	0.000000
6.250000	-0.027887	-0.290369	0.121394	0.175781	0.159885	0.080891	-0.049135	-0.008439	0.058319	0.136386	0.133551	0.027437	0.146525	0.146525	1.604752	1.289264	0.000000	0.000000	0.000000	0.000000	0.000000	0.000000	0.000000	0.000000	0.000000	0.000000	0.000000	0.000000	0.000000	0.000000	0.000000	0.000000	0.000000	0.000000	0.000000	0.000000	0.000000	0.000000
